<?xml version="1.0" standalone="no"?>
<!DOCTYPE svg PUBLIC "-//W3C//DTD SVG 20010904//EN"
 "http://www.w3.org/TR/2001/REC-SVG-20010904/DTD/svg10.dtd">
<svg version="1.0" xmlns="http://www.w3.org/2000/svg"
 width="1552.000000pt" height="1552.000000pt" viewBox="0 0 1552.000000 1552.000000"
 preserveAspectRatio="xMidYMid meet">
<metadata>
Created by potrace 1.14, written by Peter Selinger 2001-2017
</metadata>
<g transform="translate(0.000000,1552.000000) scale(0.100000,-0.100000)"
fill="#000000" stroke="none">
<path d="M7525 15514 c-16 -2 -93 -11 -170 -19 -747 -81 -1437 -334 -1970
-723 -765 -557 -1274 -1383 -1476 -2393 -63 -320 -74 -437 -74 -859 0 -404 6
-482 56 -761 52 -294 112 -480 382 -1184 36 -93 99 -258 140 -365 351 -915
885 -2246 1259 -3140 50 -118 119 -282 153 -365 366 -875 998 -2319 1374
-3142 28 -62 51 -114 51 -117 0 -2 -35 -7 -77 -10 -395 -32 -723 -74 -948
-121 -824 -174 -1268 -366 -1613 -699 -79 -76 -197 -214 -226 -263 -16 -29
194 -304 359 -469 316 -317 653 -509 1117 -633 350 -94 904 -189 1368 -233
185 -18 986 -18 1175 0 190 18 486 57 631 82 65 12 157 28 204 36 225 39 500
102 665 154 401 124 731 329 1024 635 100 105 266 317 305 389 l18 34 -48 64
c-63 83 -211 236 -299 308 -146 120 -374 252 -573 331 -509 205 -1260 356
-1919 386 -79 3 -143 8 -143 9 0 2 71 162 159 356 960 2133 1779 4088 2631
6288 219 563 430 1129 468 1255 68 220 113 441 142 705 25 224 28 665 5 892
-112 1110 -594 2059 -1370 2699 -567 467 -1265 747 -2130 855 -123 15 -581 28
-650 18z m565 -1460 c286 -42 517 -116 774 -246 243 -124 443 -274 646 -484
921 -952 906 -2468 -35 -3409 -466 -467 -1067 -715 -1730 -715 -832 0 -1586
410 -2046 1113 -177 270 -294 569 -357 907 -24 134 -26 166 -27 415 0 220 3
290 19 375 116 660 442 1199 956 1585 353 265 812 439 1255 475 135 11 417 3
545 -16z m-670 -11971 c150 -329 333 -713 340 -713 7 0 21 28 257 535 80 171
146 312 148 313 2 2 96 -1 210 -7 563 -30 1101 -139 1595 -323 142 -53 354
-154 449 -215 149 -95 367 -296 355 -328 -3 -7 -51 -56 -107 -107 -323 -299
-642 -489 -1004 -598 -225 -68 -701 -149 -1158 -197 -141 -15 -260 -18 -695
-18 -474 1 -544 3 -725 23 -555 61 -966 137 -1220 226 -327 113 -675 337 -934
599 l-84 85 104 104 c226 225 533 384 1029 532 395 118 824 193 1230 215 74 5
138 9 141 9 3 1 34 -60 69 -135z"/>
<path d="M7625 13570 c-632 -47 -1208 -423 -1522 -995 -174 -316 -253 -657
-240 -1029 8 -212 36 -373 103 -574 39 -118 176 -386 249 -488 328 -455 793
-736 1325 -799 446 -53 882 52 1257 304 465 313 774 811 849 1370 18 136 18
396 0 532 -114 850 -765 1529 -1591 1659 -147 22 -297 30 -430 20z m357 -121
c270 -28 560 -142 808 -317 113 -80 304 -266 385 -374 136 -183 245 -402 304
-608 58 -204 65 -264 65 -525 0 -211 -2 -254 -23 -355 -116 -573 -474 -1049
-981 -1305 -149 -75 -303 -126 -490 -161 -135 -25 -436 -25 -580 0 -300 52
-605 192 -830 382 -347 290 -555 651 -647 1119 -27 142 -25 503 5 652 79 395
250 720 519 985 208 207 429 344 698 434 248 82 472 104 767 73z"/>
</g>
</svg>
